<mxfile host="Electron" agent="Mozilla/5.0 (X11; Linux x86_64) AppleWebKit/537.36 (KHTML, like Gecko) draw.io/25.0.1 Chrome/128.0.6613.186 Electron/32.2.6 Safari/537.36" version="25.0.1">
  <diagram name="Page-1" id="HMwde_tr8L4xsojdTPUV">
    <mxGraphModel dx="1368" dy="838" grid="1" gridSize="10" guides="1" tooltips="1" connect="1" arrows="1" fold="1" page="1" pageScale="1" pageWidth="1169" pageHeight="827" background="#ffffff" math="0" shadow="0">
      <root>
        <mxCell id="0" />
        <mxCell id="1" parent="0" />
        <mxCell id="2owbVxqjxLrowaVmjvYN-4" value="" style="points=[[0.35,0,0],[0.98,0.51,0],[1,0.71,0],[0.67,1,0],[0,0.795,0],[0,0.65,0]];verticalLabelPosition=bottom;sketch=0;html=1;verticalAlign=top;aspect=fixed;align=center;pointerEvents=1;shape=mxgraph.cisco19.user;fillColor=#005073;strokeColor=none;" parent="1" vertex="1">
          <mxGeometry x="40" y="360" width="60" height="60" as="geometry" />
        </mxCell>
        <mxCell id="2owbVxqjxLrowaVmjvYN-9" value="" style="edgeStyle=orthogonalEdgeStyle;html=1;endArrow=block;elbow=vertical;startArrow=block;startFill=1;endFill=1;strokeColor=#000000;rounded=0;entryX=0;entryY=0.5;entryDx=0;entryDy=0;entryPerimeter=0;" parent="1" edge="1">
          <mxGeometry width="100" relative="1" as="geometry">
            <mxPoint x="100" y="400" as="sourcePoint" />
            <mxPoint x="312" y="400.03" as="targetPoint" />
          </mxGeometry>
        </mxCell>
        <mxCell id="2owbVxqjxLrowaVmjvYN-23" value="&lt;font style=&quot;font-size: 13px;&quot; color=&quot;#000000&quot;&gt;User&lt;/font&gt;" style="text;html=1;align=center;verticalAlign=middle;resizable=0;points=[];autosize=1;strokeColor=none;fillColor=none;" parent="1" vertex="1">
          <mxGeometry x="37" y="435" width="50" height="30" as="geometry" />
        </mxCell>
        <mxCell id="2owbVxqjxLrowaVmjvYN-3" value="&lt;font style=&quot;font-size: 13px;&quot; color=&quot;#000000&quot;&gt;Route 53&lt;/font&gt;" style="sketch=0;points=[[0,0,0],[0.25,0,0],[0.5,0,0],[0.75,0,0],[1,0,0],[0,1,0],[0.25,1,0],[0.5,1,0],[0.75,1,0],[1,1,0],[0,0.25,0],[0,0.5,0],[0,0.75,0],[1,0.25,0],[1,0.5,0],[1,0.75,0]];outlineConnect=0;fontColor=#232F3E;fillColor=#8C4FFF;strokeColor=#ffffff;dashed=0;verticalLabelPosition=bottom;verticalAlign=top;align=center;html=1;fontSize=12;fontStyle=0;aspect=fixed;shape=mxgraph.aws4.resourceIcon;resIcon=mxgraph.aws4.route_53;" parent="1" vertex="1">
          <mxGeometry x="310" y="360" width="78" height="78" as="geometry" />
        </mxCell>
        <mxCell id="2owbVxqjxLrowaVmjvYN-5" value="&lt;font style=&quot;font-size: 13px;&quot; color=&quot;#000000&quot;&gt;WAF&lt;/font&gt;" style="sketch=0;points=[[0,0,0],[0.25,0,0],[0.5,0,0],[0.75,0,0],[1,0,0],[0,1,0],[0.25,1,0],[0.5,1,0],[0.75,1,0],[1,1,0],[0,0.25,0],[0,0.5,0],[0,0.75,0],[1,0.25,0],[1,0.5,0],[1,0.75,0]];outlineConnect=0;fontColor=#232F3E;fillColor=#DD344C;strokeColor=#ffffff;dashed=0;verticalLabelPosition=bottom;verticalAlign=top;align=center;html=1;fontSize=12;fontStyle=0;aspect=fixed;shape=mxgraph.aws4.resourceIcon;resIcon=mxgraph.aws4.waf;" parent="1" vertex="1">
          <mxGeometry x="480" y="359" width="80" height="80" as="geometry" />
        </mxCell>
        <mxCell id="2owbVxqjxLrowaVmjvYN-6" value="&lt;font style=&quot;font-size: 13px;&quot; color=&quot;#000000&quot;&gt;Load Balancer&lt;/font&gt;" style="outlineConnect=0;dashed=0;verticalLabelPosition=bottom;verticalAlign=top;align=center;html=1;shape=mxgraph.aws3.application_load_balancer;fillColor=#F58534;gradientColor=none;" parent="1" vertex="1">
          <mxGeometry x="640" y="363" width="69" height="72" as="geometry" />
        </mxCell>
        <mxCell id="2owbVxqjxLrowaVmjvYN-7" value="&lt;font style=&quot;font-size: 13px;&quot; color=&quot;#000000&quot;&gt;VPC&lt;/font&gt;" style="sketch=0;outlineConnect=0;gradientColor=none;html=1;whiteSpace=wrap;fontSize=12;fontStyle=0;shape=mxgraph.aws4.group;grIcon=mxgraph.aws4.group_vpc;strokeColor=#000000;fillColor=none;verticalAlign=top;align=left;spacingLeft=30;fontColor=#879196;dashed=0;" parent="1" vertex="1">
          <mxGeometry x="760" y="259" width="290" height="280" as="geometry" />
        </mxCell>
        <mxCell id="2owbVxqjxLrowaVmjvYN-8" value="" style="points=[];aspect=fixed;html=1;align=center;shadow=0;dashed=0;fillColor=#FF6A00;strokeColor=none;shape=mxgraph.alibaba_cloud.ecs_elastic_compute_service;" parent="1" vertex="1">
          <mxGeometry x="876" y="370.75" width="59.6" height="55.55" as="geometry" />
        </mxCell>
        <mxCell id="2owbVxqjxLrowaVmjvYN-10" value="" style="edgeStyle=orthogonalEdgeStyle;html=1;endArrow=block;elbow=vertical;startArrow=block;startFill=1;endFill=1;strokeColor=#000000;rounded=0;entryX=0;entryY=0.5;entryDx=0;entryDy=0;entryPerimeter=0;" parent="1" source="2owbVxqjxLrowaVmjvYN-3" target="2owbVxqjxLrowaVmjvYN-5" edge="1">
          <mxGeometry width="100" relative="1" as="geometry">
            <mxPoint x="178" y="189" as="sourcePoint" />
            <mxPoint x="470" y="399" as="targetPoint" />
          </mxGeometry>
        </mxCell>
        <mxCell id="2owbVxqjxLrowaVmjvYN-11" value="" style="edgeStyle=orthogonalEdgeStyle;html=1;endArrow=block;elbow=vertical;startArrow=block;startFill=1;endFill=1;strokeColor=#000000;rounded=0;entryX=0;entryY=0.5;entryDx=0;entryDy=0;entryPerimeter=0;" parent="1" target="2owbVxqjxLrowaVmjvYN-6" edge="1">
          <mxGeometry width="100" relative="1" as="geometry">
            <mxPoint x="560" y="398.5" as="sourcePoint" />
            <mxPoint x="630" y="399" as="targetPoint" />
          </mxGeometry>
        </mxCell>
        <mxCell id="2owbVxqjxLrowaVmjvYN-12" value="" style="edgeStyle=orthogonalEdgeStyle;html=1;endArrow=block;elbow=vertical;startArrow=block;startFill=1;endFill=1;strokeColor=#000000;rounded=0;" parent="1" target="2owbVxqjxLrowaVmjvYN-8" edge="1">
          <mxGeometry width="100" relative="1" as="geometry">
            <mxPoint x="709" y="398.5" as="sourcePoint" />
            <mxPoint x="809" y="398.5" as="targetPoint" />
          </mxGeometry>
        </mxCell>
        <mxCell id="2owbVxqjxLrowaVmjvYN-22" value="&lt;font style=&quot;font-size: 13px;&quot; color=&quot;#000000&quot;&gt;Application&lt;/font&gt;&lt;div&gt;&lt;font style=&quot;font-size: 13px;&quot; color=&quot;#000000&quot;&gt;workload&lt;/font&gt;&lt;/div&gt;" style="text;html=1;align=center;verticalAlign=middle;resizable=0;points=[];autosize=1;strokeColor=none;fillColor=none;" parent="1" vertex="1">
          <mxGeometry x="860.8" y="438" width="90" height="40" as="geometry" />
        </mxCell>
        <mxCell id="l4AWrjGMaiEK8cyGMO2i-2" value="&lt;font color=&quot;#000000&quot; style=&quot;font-size: 13px;&quot;&gt;Availability zone&lt;/font&gt;" style="sketch=0;outlineConnect=0;gradientColor=none;html=1;whiteSpace=wrap;fontSize=12;fontStyle=0;shape=mxgraph.aws4.group;grIcon=mxgraph.aws4.group_availability_zone;strokeColor=#000000;fillColor=none;verticalAlign=top;align=left;spacingLeft=30;fontColor=#E8E8E8;dashed=1;strokeWidth=1.5;" vertex="1" parent="1">
          <mxGeometry x="260" y="180" width="862" height="420" as="geometry" />
        </mxCell>
      </root>
    </mxGraphModel>
  </diagram>
</mxfile>
